<svg width="60" height="109" viewBox="0 0 60 109" xmlns="http://www.w3.org/2000/svg"><title>Logo / White and Black</title><defs><filter x="-28.6%" y="-26.7%" width="157.1%" height="153.3%" filterUnits="objectBoundingBox" id="a"><feGaussianBlur stdDeviation="4" in="SourceGraphic"/></filter><filter x="-30.8%" y="-30%" width="161.5%" height="160%" filterUnits="objectBoundingBox" id="b"><feGaussianBlur stdDeviation="4" in="SourceGraphic"/></filter></defs><g fill="none" fill-rule="evenodd"><path d="M0 95V50h42v45H0zm16-7h8l10-22v-8H10v8h16L16 88z" fill-opacity=".3" fill="#000" filter="url(#a)" transform="translate(9 5)"/><path d="M22 43c11.58 0 19-9.014 19-19v-3H21v7h12c-1.326 4.6-5.3 7.8-11 8-7.335-.2-12.688-5.853-13-13 .312-6.987 5.77-12.8 13-13 4.852.2 8.508 2.493 11 7l6-4C36.072 7.107 29.819 3 22 3 10.319 3 2 11.906 2 23c0 10.773 8.001 20 20 20" fill-opacity=".3" fill="#000" filter="url(#b)" transform="translate(9 5)"/><path d="M9 97V52h42v45H9zm16-7h8l10-22v-8H19v8h16L25 90zM31 45c11.58 0 19-9.014 19-19v-3H30v7h12c-1.326 4.6-5.3 7.8-11 8-7.335-.2-12.688-5.853-13-13 .312-6.987 5.77-12.8 13-13 4.852.2 8.508 2.493 11 7l6-4C45.072 9.107 38.819 5 31 5c-11.681 0-20 8.906-20 20 0 10.773 8.001 20 20 20" fill="#FFF"/></g></svg>