<svg width="188" height="56" viewBox="0 0 188 56" fill="none" xmlns="http://www.w3.org/2000/svg">
<path d="M100.617 24.9505V34.6259C100.617 35.7869 99.6878 36.6384 98.5264 36.6384C97.288 36.6384 96.4361 35.7869 96.4361 34.6259V25.7246C96.4361 23.5189 95.5465 22.0093 93.0304 22.0093C90.2438 22.0093 89.1609 23.5189 89.1609 25.6861V34.626C89.1609 35.787 88.2321 36.6384 87.0707 36.6384C85.8322 36.6384 84.9804 35.787 84.9804 34.626V25.7246C84.9804 23.5189 84.0908 22.0093 81.5746 22.0093C78.6726 22.0093 77.7052 23.7122 77.7052 25.9958V34.6261C77.7052 35.7871 76.8148 36.6385 75.6149 36.6385C74.415 36.6385 73.5247 35.7871 73.5247 34.6261V20.5386C73.5247 19.3775 74.4535 18.4487 75.6149 18.4487C76.7763 18.4487 77.7052 19.3775 77.7052 20.5386C78.44 19.416 80.0658 18.2164 82.659 18.2164C85.8321 18.2164 87.4187 19.2227 88.3861 20.7322C89.6245 19.0679 91.2889 18.2164 93.9206 18.2164C99.1842 18.2165 100.617 21.5834 100.617 24.9505Z" fill="white"/>
<path d="M111.878 18.2166C118.418 18.2166 119.618 23.2478 119.618 25.918C119.618 27.3502 119.618 29.0142 117.257 29.0142H107.697C107.697 31.8007 109.671 33.078 112.226 33.078C113.929 33.078 115.128 32.4977 116.057 31.8784C116.483 31.6073 116.792 31.4525 117.295 31.4525C118.302 31.4525 119.114 32.2651 119.114 33.2717C119.114 33.8909 118.805 34.3939 118.456 34.7034C117.799 35.3227 115.747 36.8322 112.226 36.8322C106.846 36.8322 103.518 33.9294 103.518 27.4661C103.518 21.545 106.614 18.2166 111.878 18.2166ZM107.813 25.5313H115.477C115.477 23.6348 114.393 21.7771 111.878 21.7771C109.632 21.7772 108.007 23.0544 107.813 25.5313Z" fill="white"/>
<path d="M149.611 24.9507V34.6261C149.611 35.7871 148.682 36.6385 147.521 36.6385C146.282 36.6385 145.43 35.7871 145.43 34.6261V25.7248C145.43 23.519 144.541 22.0095 142.025 22.0095C139.238 22.0095 138.155 23.519 138.155 25.6863V34.6261C138.155 35.7872 137.226 36.6386 136.065 36.6386C134.827 36.6386 133.975 35.7872 133.975 34.6261V25.7248C133.975 23.519 133.085 22.0095 130.569 22.0095C127.667 22.0095 126.7 23.7123 126.7 25.9959V34.6262C126.7 35.7872 125.809 36.6387 124.609 36.6387C123.409 36.6387 122.519 35.7872 122.519 34.6262V20.5387C122.519 19.3777 123.448 18.4488 124.609 18.4488C125.771 18.4488 126.7 19.3777 126.7 20.5387C127.434 19.4162 129.06 18.2166 131.653 18.2166C134.826 18.2166 136.413 19.2228 137.38 20.7324C138.619 19.0681 140.283 18.2166 142.915 18.2166C148.178 18.2167 149.611 21.5836 149.611 24.9507Z" fill="white"/>
<path d="M160.949 36.8322C155.724 36.8322 152.473 33.852 152.473 27.5439C152.473 21.1968 155.724 18.2166 160.949 18.2166C166.174 18.2166 169.425 21.1969 169.425 27.5439C169.425 33.852 166.174 36.8322 160.949 36.8322ZM160.949 21.7772C158.162 21.7772 156.692 23.7123 156.692 27.5439C156.692 31.3363 158.163 33.2717 160.949 33.2717C163.735 33.2717 165.207 31.3363 165.207 27.5439C165.207 23.7122 163.735 21.7772 160.949 21.7772Z" fill="white"/>
<path d="M171.707 27.505C171.707 21.1968 174.764 18.2166 179.989 18.2166C184.671 18.2166 188 20.8095 188 25.9569V42.0179C188 43.1793 187.071 44.1082 185.91 44.1082C184.749 44.1082 183.82 43.1793 183.82 42.0179V35.2842C183.046 36.0582 181.42 36.8323 179.563 36.8323C174.687 36.8322 171.707 33.8132 171.707 27.505ZM183.82 25.9569C183.82 23.2863 182.234 21.7771 179.989 21.7771C177.318 21.7771 175.847 23.7122 175.847 27.5049C175.847 31.3362 177.357 33.2716 179.989 33.2716C182.311 33.2716 183.82 31.2977 183.82 31.2977V25.9569Z" fill="white"/>
<path d="M36.7084 27.5311C36.7084 24.313 36.1555 21.2244 35.1407 18.354H35.1376C33.4107 13.4699 30.3456 9.21825 26.3823 6.0404C26.3754 6.03496 26.3686 6.02945 26.3617 6.02401C25.9751 5.71459 25.5799 5.41551 25.1766 5.12694C25.1596 5.11478 25.1426 5.10277 25.1256 5.09068C24.9314 4.95244 24.7357 4.81639 24.5378 4.68313C24.5335 4.68011 24.5291 4.67708 24.5246 4.67414C24.323 4.53846 24.1192 4.40558 23.9138 4.2752C23.8894 4.25971 23.8648 4.24445 23.8403 4.22904C23.6571 4.11346 23.4724 4.00007 23.2863 3.88872C23.2609 3.87354 23.2357 3.85813 23.2103 3.84302C23.0077 3.72268 22.8034 3.60498 22.5975 3.48978C22.5686 3.47361 22.5394 3.4579 22.5104 3.44189C22.3313 3.34247 22.1509 3.24525 21.9694 3.14984C21.9294 3.12884 21.8897 3.10761 21.8497 3.08684C21.6445 2.98025 21.438 2.87584 21.2299 2.77439C21.2015 2.76049 21.1727 2.7472 21.1442 2.73345C20.9626 2.64559 20.7798 2.56 20.596 2.47607C20.5459 2.45318 20.4959 2.43029 20.4457 2.40771C20.2365 2.31373 20.0264 2.22172 19.8145 2.13281C19.7941 2.12427 19.7736 2.11626 19.7532 2.10773C19.56 2.02727 19.3654 1.94931 19.17 1.87317C19.1147 1.85164 19.0593 1.83018 19.0038 1.80896C18.7887 1.72677 18.5727 1.64616 18.3551 1.56918H18.3549C7.66184 5.34843 0 15.5442 0 27.5313C0 30.7494 0.55403 33.8378 1.56879 36.7084C5.3485 26.0158 15.5443 18.3542 27.5312 18.3542C32.5996 18.354 36.7084 22.4627 36.7084 27.5311Z" fill="url(#paint0_linear)"/>
<path d="M18.3665 28.0079C18.3585 27.8501 18.3541 27.6912 18.3541 27.5315C18.3541 27.5266 18.3552 27.5222 18.3552 27.5173C18.3623 22.4559 22.467 18.3547 27.53 18.3545C27.1462 18.3545 26.7643 18.3628 26.3844 18.3784H26.3842C25.6703 18.4076 24.9635 18.4645 24.2646 18.5472C24.2593 18.5478 24.2539 18.5482 24.2484 18.5489C23.5684 18.6297 22.8967 18.7374 22.2328 18.8669C22.2033 18.8727 22.1732 18.8771 22.1438 18.883C21.4989 19.0109 20.8631 19.1637 20.2353 19.3359C20.1895 19.3485 20.1429 19.3595 20.0972 19.3724C19.4846 19.5438 18.8815 19.7382 18.2869 19.9501C18.2291 19.9707 18.1708 19.99 18.1132 20.0109C17.5303 20.2232 16.9575 20.4564 16.3938 20.7061C16.3295 20.7347 16.2645 20.762 16.2004 20.791C15.6463 21.0417 15.1025 21.3117 14.5684 21.5974C14.5 21.634 14.4312 21.6699 14.3631 21.707C13.837 21.9942 13.322 22.2989 12.8175 22.6187C12.7476 22.663 12.6775 22.7071 12.6079 22.752C12.1095 23.0744 11.6223 23.4126 11.1466 23.7656C11.0786 23.8161 11.0107 23.8668 10.9431 23.9179C10.4718 24.2744 10.0125 24.6454 9.56561 25.0308C9.5008 25.0867 9.43674 25.1432 9.3723 25.1997C8.92886 25.5894 8.49736 25.9926 8.07977 26.4098C8.02099 26.4685 7.96305 26.5281 7.90481 26.5874C7.48864 27.0107 7.08502 27.4464 6.69658 27.8959C6.64559 27.9549 6.59611 28.015 6.54549 28.0745C6.15735 28.5314 5.78236 28.9999 5.42429 29.4818C5.38183 29.539 5.34089 29.5974 5.29889 29.655C4.94006 30.1458 4.59506 30.6476 4.26849 31.1624C4.23593 31.2139 4.20511 31.2666 4.1727 31.3183C3.84356 31.8449 3.52968 32.382 3.23604 32.9317C3.21421 32.9724 3.19419 33.0142 3.17251 33.0551C2.8745 33.62 2.59325 34.195 2.33399 34.7822C2.32304 34.807 2.31344 34.8324 2.30249 34.8571C2.03703 35.4635 1.79091 36.0803 1.56882 36.7086C5.34844 47.4012 15.5444 55.0628 27.5313 55.0628C30.7494 55.0628 35.5612 55.0628 39.0026 55.0628C28.4519 51.3331 18.6254 39.8287 18.3665 28.0079Z" fill="url(#paint1_linear)"/>
<path d="M36.7083 27.5311C36.7083 32.5252 32.7182 36.5847 27.7524 36.7026C27.7688 36.7063 27.7167 36.7082 27.5313 36.7082H35.5612C41.359 36.7082 46.5256 39.3993 49.8892 43.5974C53.1441 39.0758 55.0625 33.5278 55.0625 27.5311C55.0625 27.3104 55.0593 27.0904 55.0541 26.8709C55.0524 26.7965 55.0493 26.7223 55.0469 26.6481C55.0423 26.5036 55.0372 26.3592 55.0304 26.2153C55.0262 26.1259 55.0211 26.0368 55.016 25.9477C55.0088 25.8201 55.0008 25.6926 54.9918 25.5655C54.985 25.4691 54.9778 25.3728 54.97 25.2767C54.9604 25.1585 54.9496 25.0405 54.9386 24.9227C54.9291 24.8215 54.9198 24.7203 54.9092 24.6194C54.8977 24.5102 54.8846 24.4016 54.8719 24.2927C54.8593 24.1853 54.8475 24.0777 54.8337 23.9707C54.8321 23.9582 54.83 23.9458 54.8284 23.9333C54.7859 23.6079 54.7367 23.2845 54.6829 22.9628C54.6728 22.9029 54.6635 22.8428 54.6531 22.7831C54.6281 22.6392 54.6012 22.496 54.5739 22.353C54.563 22.2953 54.5522 22.2376 54.5409 22.18C54.5117 22.0319 54.4811 21.8844 54.4496 21.7371C54.4396 21.6904 54.4294 21.6439 54.4192 21.5974C54.3844 21.4391 54.3486 21.2812 54.3111 21.124C54.3063 21.1039 54.3013 21.0838 54.2964 21.0637C51.3869 8.97941 40.5085 -0.00012207 27.5313 -0.00012207C24.3131 -0.00012207 21.2248 0.553908 18.3542 1.56867C29.0467 5.3483 36.7083 15.5441 36.7083 27.5311Z" fill="url(#paint2_linear)"/>
<path d="M35.5612 36.7081H27.5313C22.6228 36.7081 18.6145 32.8544 18.3665 28.0076C18.5979 38.571 26.4707 48.8766 35.6721 53.6122C35.8907 53.7247 36.1099 53.8347 36.3299 53.941C36.418 53.9835 36.5064 54.0245 36.5947 54.066C36.7957 54.1606 36.997 54.2541 37.199 54.3433C37.3384 54.4046 37.4783 54.4625 37.6181 54.5212C37.7742 54.587 37.93 54.6543 38.0865 54.7167C38.3912 54.8378 38.6965 54.954 39.0026 55.0622H53.9153C53.9153 44.9255 45.6979 36.7081 35.5612 36.7081Z" fill="url(#paint3_linear)"/>
<defs>
<linearGradient id="paint0_linear" x1="25.9151" y1="4.31992" x2="12.6577" y2="40.7444" gradientUnits="userSpaceOnUse">
<stop stop-color="#EF3F3F"/>
<stop offset="1" stop-color="#F47623"/>
</linearGradient>
<linearGradient id="paint1_linear" x1="12.5486" y1="22.0362" x2="26.2577" y2="59.7015" gradientUnits="userSpaceOnUse">
<stop stop-color="#EF3F3F"/>
<stop offset="1" stop-color="#F47623"/>
</linearGradient>
<linearGradient id="paint2_linear" x1="36.7083" y1="43.5974" x2="36.7083" y2="-0.00012207" gradientUnits="userSpaceOnUse">
<stop stop-color="#EF3F3F"/>
<stop offset="1" stop-color="#F47623"/>
</linearGradient>
<linearGradient id="paint3_linear" x1="18.3665" y1="41.5349" x2="53.9153" y2="41.5349" gradientUnits="userSpaceOnUse">
<stop stop-color="#EF3F3F"/>
<stop offset="1" stop-color="#F47623"/>
</linearGradient>
</defs>
</svg>
