<?xml version="1.0" encoding="UTF-8"?>
<svg width="42px" height="93px" viewBox="0 0 42 93" version="1.1" xmlns="http://www.w3.org/2000/svg" xmlns:xlink="http://www.w3.org/1999/xlink">
    <!-- Generator: Sketch 49.1 (51147) - http://www.bohemiancoding.com/sketch -->
    <title>Logo / White and Black</title>
    <desc>Created with Sketch.</desc>
    <defs></defs>
    <g id="Page-1" stroke="none" stroke-width="1" fill="none" fill-rule="evenodd">
        <g id="Viták-oldala" transform="translate(-21.000000, -122.000000)" fill="#000000">
            <g id="Header">
                <g id="Logo-/-White-and-Black" transform="translate(21.000000, 122.000000)">
                    <path d="M0,93 L0,48 L42,48 L42,93 L0,93 Z M16,86 L24,86 L34,64 L34,56 L10,56 L10,64 L26,64 L16,86 Z" id="7" fill-opacity="0.88"></path>
                    <path d="M22,40 C33.5807131,40 41,30.9862429 41,21 L41,18 L21,18 L21,25 L33,25 C31.6740386,29.5995798 27.6994682,32.8002593 22,33 C14.6645295,32.8002593 9.31225017,27.1467686 9,20 C9.31225017,13.0132654 14.7702338,7.19974073 22,7 C26.8516131,7.19974073 30.5077382,9.49296499 33,14 L39,10 C36.0718703,4.10679362 29.8188837,0 22,0 C10.3186617,0 2,8.90602474 2,20 C2,30.7734603 10.0011046,40 22,40" id="G"></path>
                </g>
            </g>
        </g>
    </g>
</svg>