<?xml version="1.0" standalone="no"?>
<!DOCTYPE svg PUBLIC "-//W3C//DTD SVG 20010904//EN"
 "http://www.w3.org/TR/2001/REC-SVG-20010904/DTD/svg10.dtd">
<svg version="1.0" xmlns="http://www.w3.org/2000/svg"
 width="256.000000pt" height="256.000000pt" viewBox="0 0 256.000000 256.000000"
 preserveAspectRatio="xMidYMid meet">
<metadata>
Created by potrace 1.11, written by Peter Selinger 2001-2013
</metadata>
<g transform="translate(0.000000,256.000000) scale(0.100000,-0.100000)"
fill="#000000" stroke="none">
<path d="M100 2549 c-35 -14 -59 -38 -81 -81 -19 -37 -19 -73 -17 -1200 l3
-1163 22 -31 c12 -17 35 -40 50 -50 27 -18 71 -19 1191 -22 1296 -3 1204 -7
1260 66 l27 35 3 1164 c3 1298 7 1205 -66 1261 l-35 27 -1166 2 c-757 1 -1175
-2 -1191 -8z"/>
</g>
</svg>
