<?xml version="1.0" encoding="UTF-8"?>
<svg width="372px" height="44px" viewBox="0 0 372 44" version="1.1" xmlns="http://www.w3.org/2000/svg" xmlns:xlink="http://www.w3.org/1999/xlink">
    <!-- Generator: Sketch 45.1 (43504) - http://www.bohemiancoding.com/sketch -->
    <title>Combined Shape</title>
    <desc>Created with Sketch.</desc>
    <defs></defs>
    <g id="Page-1" stroke="none" stroke-width="1" fill="none" fill-rule="evenodd">
        <g id="Desktop" transform="translate(-454.000000, -619.000000)" fill="#FFFFFF">
            <g id="Content" transform="translate(232.000000, 345.000000)">
                <path d="M552,278 C553.104569,278 554,277.104569 554,276 C554,274.895431 553.104569,274 552,274 C550.895431,274 550,274.895431 550,276 C550,277.104569 550.895431,278 552,278 Z M562,288 C563.104569,288 564,287.104569 564,286 C564,284.895431 563.104569,284 562,284 C560.895431,284 560,284.895431 560,286 C560,287.104569 560.895431,288 562,288 Z M572,298 C573.104569,298 574,297.104569 574,296 C574,294.895431 573.104569,294 572,294 C570.895431,294 570,294.895431 570,296 C570,297.104569 570.895431,298 572,298 Z M582,308 C583.104569,308 584,307.104569 584,306 C584,304.895431 583.104569,304 582,304 C580.895431,304 580,304.895431 580,306 C580,307.104569 580.895431,308 582,308 Z M592,318 C590.895431,318 590,317.104569 590,316 C590,314.895431 590.895431,314 592,314 C593.104569,314 594,314.895431 594,316 C594,317.104569 593.104569,318 592,318 Z M408,278 C406.895431,278 406,277.104569 406,276 C406,274.895431 406.895431,274 408,274 C409.104569,274 410,274.895431 410,276 C410,277.104569 409.104569,278 408,278 Z M408,288 C406.895431,288 406,287.104569 406,286 C406,284.895431 406.895431,284 408,284 C409.104569,284 410,284.895431 410,286 C410,287.104569 409.104569,288 408,288 Z M408,298 C406.895431,298 406,297.104569 406,296 C406,294.895431 406.895431,294 408,294 C409.104569,294 410,294.895431 410,296 C410,297.104569 409.104569,298 408,298 Z M408,308 C406.895431,308 406,307.104569 406,306 C406,304.895431 406.895431,304 408,304 C409.104569,304 410,304.895431 410,306 C410,307.104569 409.104569,308 408,308 Z M408,318 C406.895431,318 406,317.104569 406,316 C406,314.895431 406.895431,314 408,314 C409.104569,314 410,314.895431 410,316 C410,317.104569 409.104569,318 408,318 Z M264,278 C262.895431,278 262,277.104569 262,276 C262,274.895431 262.895431,274 264,274 C265.104569,274 266,274.895431 266,276 C266,277.104569 265.104569,278 264,278 Z M254,288 C252.895431,288 252,287.104569 252,286 C252,284.895431 252.895431,284 254,284 C255.104569,284 256,284.895431 256,286 C256,287.104569 255.104569,288 254,288 Z M244,298 C242.895431,298 242,297.104569 242,296 C242,294.895431 242.895431,294 244,294 C245.104569,294 246,294.895431 246,296 C246,297.104569 245.104569,298 244,298 Z M234,308 C232.895431,308 232,307.104569 232,306 C232,304.895431 232.895431,304 234,304 C235.104569,304 236,304.895431 236,306 C236,307.104569 235.104569,308 234,308 Z M224,318 C222.895431,318 222,317.104569 222,316 C222,314.895431 222.895431,314 224,314 C225.104569,314 226,314.895431 226,316 C226,317.104569 225.104569,318 224,318 Z" id="Combined-Shape"></path>
            </g>
        </g>
    </g>
</svg>