<?xml version="1.0" encoding="UTF-8"?>
<svg width="252px" height="44px" viewBox="0 0 252 44" version="1.1" xmlns="http://www.w3.org/2000/svg" xmlns:xlink="http://www.w3.org/1999/xlink">
    <!-- Generator: Sketch 45 (43475) - http://www.bohemiancoding.com/sketch -->
    <title>Combined Shape</title>
    <desc>Created with Sketch.</desc>
    <defs></defs>
    <g id="Page-1" stroke="none" stroke-width="1" fill="none" fill-rule="evenodd">
        <g id="Desktop" transform="translate(-514.000000, -619.000000)" fill="#FFFFFF">
            <g id="Content" transform="translate(232.000000, 253.000000)">
                <path d="M492,370 C493.104569,370 494,369.104569 494,368 C494,366.895431 493.104569,366 492,366 C490.895431,366 490,366.895431 490,368 C490,369.104569 490.895431,370 492,370 Z M502,380 C503.104569,380 504,379.104569 504,378 C504,376.895431 503.104569,376 502,376 C500.895431,376 500,376.895431 500,378 C500,379.104569 500.895431,380 502,380 Z M512,390 C513.104569,390 514,389.104569 514,388 C514,386.895431 513.104569,386 512,386 C510.895431,386 510,386.895431 510,388 C510,389.104569 510.895431,390 512,390 Z M522,400 C523.104569,400 524,399.104569 524,398 C524,396.895431 523.104569,396 522,396 C520.895431,396 520,396.895431 520,398 C520,399.104569 520.895431,400 522,400 Z M532,410 C530.895431,410 530,409.104569 530,408 C530,406.895431 530.895431,406 532,406 C533.104569,406 534,406.895431 534,408 C534,409.104569 533.104569,410 532,410 Z M408,370 C406.895431,370 406,369.104569 406,368 C406,366.895431 406.895431,366 408,366 C409.104569,366 410,366.895431 410,368 C410,369.104569 409.104569,370 408,370 Z M408,380 C406.895431,380 406,379.104569 406,378 C406,376.895431 406.895431,376 408,376 C409.104569,376 410,376.895431 410,378 C410,379.104569 409.104569,380 408,380 Z M408,390 C406.895431,390 406,389.104569 406,388 C406,386.895431 406.895431,386 408,386 C409.104569,386 410,386.895431 410,388 C410,389.104569 409.104569,390 408,390 Z M408,400 C406.895431,400 406,399.104569 406,398 C406,396.895431 406.895431,396 408,396 C409.104569,396 410,396.895431 410,398 C410,399.104569 409.104569,400 408,400 Z M408,410 C406.895431,410 406,409.104569 406,408 C406,406.895431 406.895431,406 408,406 C409.104569,406 410,406.895431 410,408 C410,409.104569 409.104569,410 408,410 Z M324,370 C322.895431,370 322,369.104569 322,368 C322,366.895431 322.895431,366 324,366 C325.104569,366 326,366.895431 326,368 C326,369.104569 325.104569,370 324,370 Z M314,380 C312.895431,380 312,379.104569 312,378 C312,376.895431 312.895431,376 314,376 C315.104569,376 316,376.895431 316,378 C316,379.104569 315.104569,380 314,380 Z M304,390 C302.895431,390 302,389.104569 302,388 C302,386.895431 302.895431,386 304,386 C305.104569,386 306,386.895431 306,388 C306,389.104569 305.104569,390 304,390 Z M294,400 C292.895431,400 292,399.104569 292,398 C292,396.895431 292.895431,396 294,396 C295.104569,396 296,396.895431 296,398 C296,399.104569 295.104569,400 294,400 Z M284,410 C282.895431,410 282,409.104569 282,408 C282,406.895431 282.895431,406 284,406 C285.104569,406 286,406.895431 286,408 C286,409.104569 285.104569,410 284,410 Z" id="Combined-Shape"></path>
            </g>
        </g>
    </g>
</svg>