<?xml version="1.0" encoding="UTF-8"?>
<svg width="36px" height="32px" viewBox="0 0 36 32" version="1.1" xmlns="http://www.w3.org/2000/svg" xmlns:xlink="http://www.w3.org/1999/xlink">
    <!-- Generator: Sketch 45.1 (43504) - http://www.bohemiancoding.com/sketch -->
    <title>icon-refresh</title>
    <desc>Created with Sketch.</desc>
    <defs></defs>
    <g id="Page-1" stroke="none" stroke-width="1" fill="none" fill-rule="evenodd">
        <g id="Desktop" transform="translate(-742.000000, -930.000000)" fill-rule="nonzero" fill="#FFFFFF">
            <g id="Links" transform="translate(-3.000000, 920.000000)">
                <path d="M771.475591,15.873614 C776.755426,15.873614 781,20.5036064 781,26.0706212 C781,31.6376359 776.755426,36.2125094 771.475591,36.2125094 L766.402807,36.2125094 L768.887436,39.2991711 C769.45683,39.9605986 769.405067,41.0078588 768.732147,41.6141673 C768.421568,41.8897621 768.059226,42 767.696885,42 C767.231017,42 766.816912,41.8346431 766.506333,41.4488104 L760.605341,34.0628701 L766.558097,26.7320487 C767.075727,26.0706212 768.059226,25.9603832 768.732147,26.5666918 C769.353304,27.1178814 769.45683,28.1651416 768.887436,28.881688 L765.678124,32.850253 L771.475591,32.850253 C774.995481,32.850253 777.894214,29.7635913 777.894214,26.0155022 C777.894214,22.2674131 775.047244,19.1807514 771.475591,19.1807514 C770.595618,19.1807514 769.922698,18.464205 769.922698,17.5271827 C769.922698,16.5901604 770.595618,15.873614 771.475591,15.873614 Z M759.441903,25.2989558 C759.131325,25.6847885 758.71722,25.9052643 758.303115,25.7950264 C757.940774,25.7950264 757.578432,25.6847885 757.267853,25.4091937 C756.646696,24.8580041 756.54317,23.8107439 757.112564,23.0941974 L760.321876,19.1256325 L754.524409,19.1256325 C751.004519,19.1256325 748.105786,22.2122941 748.105786,25.9603832 C748.105786,29.7084724 750.952756,32.795134 754.524409,32.795134 C755.404382,32.795134 756.077302,33.5116805 756.077302,34.4487028 C756.077302,35.3857251 755.404382,36.1022715 754.524409,36.1022715 C749.296337,36.1022715 745,31.527398 745,25.9603832 C745,20.3933685 749.244574,15.818495 754.524409,15.818495 L759.597193,15.818495 L757.112564,12.7318334 C756.54317,12.0704059 756.594933,11.0231457 757.267853,10.4168371 C757.889011,9.81052858 758.872509,9.86564754 759.441903,10.582194 L765.342896,17.9681344 L759.441903,25.2989558 Z" id="icon-refresh"></path>
            </g>
        </g>
    </g>
</svg>