<svg width="46" height="40" viewBox="0 0 46 40" xmlns="http://www.w3.org/2000/svg"><path d="M33.83 7.342C40.576 7.342 46 13.13 46 20.088c0 6.96-5.424 12.678-12.17 12.678h-6.482l3.175 3.858c.727.827.66 2.136-.2 2.894-.395.344-.858.482-1.32.482-.597 0-1.126-.207-1.523-.69l-7.54-9.23 7.606-9.165c.662-.827 1.92-.965 2.778-.207.794.69.926 1.998.2 2.894l-4.102 4.96h7.408c4.498 0 8.2-3.858 8.2-8.543 0-4.686-3.636-8.544-8.2-8.544-1.124 0-1.984-.896-1.984-2.067 0-1.172.86-2.068 1.984-2.068zM18.454 19.124c-.397.482-.926.758-1.456.62-.463 0-.926-.138-1.322-.483-.794-.687-.926-1.997-.2-2.892l4.102-4.96H12.17c-4.498 0-8.2 3.857-8.2 8.542 0 4.686 3.636 8.544 8.2 8.544 1.124 0 1.984.896 1.984 2.067 0 1.172-.86 2.068-1.984 2.068C5.49 32.628 0 26.908 0 19.95 0 12.992 5.424 7.273 12.17 7.273h6.482l-3.175-3.858c-.727-.827-.66-2.136.2-2.894.792-.757 2.05-.688 2.777.208l7.54 9.232-7.54 9.164z" fill-rule="nonzero" fill="#FFF"/></svg>