<svg width="64" height="10" viewBox="0 0 64 10" xmlns="http://www.w3.org/2000/svg"><path d="M61.056 4.088c-.745 1.39-2.13 2.254-3.617 2.254-1.488 0-2.873-.865-3.616-2.256C52.476 1.566 49.964 0 47.264 0c-2.698 0-5.212 1.565-6.56 4.088-.744 1.39-2.13 2.254-3.617 2.254s-2.87-.865-3.615-2.256C32.124 1.566 29.61-.002 26.912 0c-2.7-.002-5.212 1.565-6.56 4.088-.743 1.39-2.13 2.254-3.617 2.254-1.486 0-2.87-.865-3.616-2.254C11.77 1.565 9.255 0 6.557 0 3.86-.002 1.346 1.567 0 4.088L2.944 5.91c.744-1.387 2.13-2.254 3.615-2.252 1.488-.002 2.873.863 3.614 2.253C11.522 8.434 14.037 10 16.734 10c2.7 0 5.213-1.567 6.56-4.086.744-1.39 2.132-2.256 3.62-2.256 1.484 0 2.87.865 3.614 2.256 1.348 2.52 3.862 4.088 6.56 4.086 2.698 0 5.212-1.565 6.56-4.087.743-1.39 2.13-2.254 3.617-2.254 1.486 0 2.87.865 3.615 2.253L52.352 5l-1.472.912C52.23 8.432 54.742 10 57.44 10c2.7 0 5.212-1.567 6.56-4.09L61.056 4.09z" fill="#F6F6E1" fill-rule="evenodd"/></svg>